# xmcd CD database file
#
# Track frame offsets:
#	150
#	22381
#	38151
#	58958
#	77692
#	98405
#	124154
#	144257
#	167697
#	186316
#	205851
#	229319
#	249394
#	267926
#	282432
#	303197
#	324784
#	342456
#
# Disc length: 4765 seconds
#
# Revision: 0
# Processed by: cddbd v1.5.1PL0 Copyright (c) Steve Scherf et al.
# Submitted via: CDex 1.51
#
DISCID=02129b12
DTITLE=Feel - Feel - The Most Relaxing
DYEAR=2000
DGENRE=Easy Listening
TTITLE0=Adiemus/世紀を越えて (MAKARE KAMA)
TTITLE1=姫神/神々の詩
TTITLE2=Secret Garden/祈り
TTITLE3=Enigma/Return to Innocence
TTITLE4=Wong Wing Tsan (黄永燦)/運命と絆
TTITLE5=Faye Wong/EYES ON ME -featured in FINAL FANTASY ?
TTITLE6=Andre Gagnon/溢れる愛のなかでも
TTITLE7=東儀秀樹/ニュー・エイジア
TTITLE8=サラ・ブライトマン/Time to Say Goodbye (Con Te Partiro)
TTITLE9=坂本龍一/シェルタリング・スカイ・テーマ
TTITLE10=ORIGA/ポーリュシカ・ポーレ
TTITLE11=The New World Orchestra Feat. Madrugada/My Heat Will Go On (Orchestral)
TTITLE12=Sacred Spirit/聖なる大地の祈り
TTITLE13=Michael Nyman/楽しみを希う心
TTITLE14=Hevia/ブシンドレ・リール
TTITLE15=Eric Serra/前奏曲  (映画「グラン・ブルー」より)
TTITLE16=Madredeus/終焉
TTITLE17=千住明・ﾌｨｰﾁｬﾘﾝｸﾞ・ｳﾞｧｲｵﾘﾝ・ｿﾛ 千住真理子/世紀末の詩
EXTD=YEAR: 2000
EXTT0=
EXTT1=
EXTT2=
EXTT3=
EXTT4=
EXTT5=
EXTT6=
EXTT7=
EXTT8=
EXTT9=
EXTT10=
EXTT11=
EXTT12=
EXTT13=
EXTT14=
EXTT15=
EXTT16=
EXTT17=
PLAYORDER=
